  <svg fill="#fff" viewBox="0 0 1024 1024.008" xmlns="http://www.w3.org/2000/svg">
<path d="M273.92 43.776c-35.243 4.395-64.043 13.056-92.843 27.947A257.28 257.28 0 0 0 46.72 253.44c-3.03 16.17-3.2 29.91-3.2 258.56s.17 242.39 3.2 258.56a257.152 257.152 0 0 0 134.23 181.59c22.23 11.562 42.07 18.645 68.223 24.405l17.92 3.925h489.814l17.92-3.925c79.19-17.45 141.482-64.342 177.322-133.504 11.562-22.23 18.645-42.07 24.405-68.223l3.925-17.92V267.093l-3.925-17.92c-23.04-104.576-97.28-178.944-201.558-201.856-16.213-3.584-18.986-3.626-256.17-3.882-131.883-.17-242.09 0-244.907.34m494.165 89.6A172.8 172.8 0 0 1 891.99 261.974c2.986 12.97 3.157 25.6 3.157 250.027s-.17 237.056-3.158 250.027c-14.85 63.83-61.825 111.83-126.55 129.322-13.653 3.71-13.91 3.71-246.485 4.223-203.18.427-234.752.17-247.98-2.09a165.888 165.888 0 0 1-92.67-47.83 169.173 169.173 0 0 1-44.93-77.568l-4.522-16.298V272.213l4.523-16.298a169.173 169.173 0 0 1 44.928-77.568 165.675 165.675 0 0 1 91.733-47.83c9.984-1.792 58.24-2.176 247.083-1.962l234.667.298 16.298 4.523M727.21 240c-15.53 7.765-23.253 22.016-22.058 40.747a39.552 39.552 0 0 0 19.2 32.34c11.477 7.126 28.885 8.193 40.79 2.604 10.24-4.82 19.285-15.317 22.527-26.24 3.157-10.58 3.157-13.653 0-24.234C780.16 240 751.36 227.968 727.21 240m-243.327 58.752c-27.18 4.267-55.296 14.38-79.275 28.5-55.552 32.684-94.507 92.588-102.443 157.4-2.474 20.095-2.218 34.985.896 56.105 13.996 94.25 86.743 166.528 181.633 180.438 43.18 6.314 86.016-1.11 127.062-22.016 57.3-29.185 99.157-85.377 112.085-150.487 3.5-17.706 3.03-62.89-.81-80.725a211.285 211.285 0 0 0-61.782-111.147 205.78 205.78 0 0 0-101.46-54.953c-16.812-3.883-59.777-5.632-75.905-3.115m63.104 87.723a130.133 130.133 0 0 1 81.024 66.645c8.662 17.536 11.947 30.165 13.185 50.39 3.456 57.642-31.872 108.927-88.235 128.17-14.848 5.077-18.005 5.547-37.547 5.59-25.685.042-36.778-2.518-59.733-13.782-13.653-6.7-18.645-10.368-31.7-23.467-13.1-13.055-16.77-18.047-23.468-31.7-11.392-23.21-13.952-34.133-13.824-59.733.085-19.456.597-22.784 5.632-37.547 15.275-44.715 49.75-75.99 94.933-86.016 14.72-3.285 44.843-2.56 59.734 1.45"/>
    </svg>